# xmcd
#
# Track frame offsets: 
#        225
#        15070
#        24811
#        49469
#        70170
#        85099
#        112098
#        128256
#        135370
#        153561
#
# Disc length: 2384 seconds
#
# Revision: 0
# Processed by: cddbd v1.5.2PL0 Copyright (c) Steve Scherf et al.
# Submitted via: ExactAudioCopy v0.99pb5
#
DISCID=6e094d0a
DTITLE=Tomasz Stanko - Witkacy Peyotl - Vol. 2
DYEAR=1995
DGENRE=Jazz
TTITLE0=Too Pee
TTITLE1=Kwa, kwa
TTITLE2=Sunia
TTITLE3=Ha, ha, ha
TTITLE4=Gama
TTITLE5=Euforila
TTITLE6=Freelectronic
TTITLE7=Dwaj
TTITLE8=Shaky Chicka
TTITLE9=Asmodeus
EXTD=
EXTT0=
EXTT1=
EXTT2=
EXTT3=
EXTT4=
EXTT5=
EXTT6=
EXTT7=
EXTT8=
EXTT9=
PLAYORDER=
